<?xml version="1.0" encoding="UTF-8"?>
<svg id="Layer_16" data-name="Layer 16" xmlns="http://www.w3.org/2000/svg" xmlns:xlink="http://www.w3.org/1999/xlink" viewBox="0 0 100 100">
  <defs>
    <style>
      .cls-1 {
        fill: url(#radial-gradient);
        stroke-width: 0px;
      }

      .cls-2 {
        fill: #12161b;
      }

      .cls-2, .cls-3 {
        stroke: #bfbfbf;
        stroke-miterlimit: 10;
        stroke-width: .5px;
      }

      .cls-3 {
        fill: red;
      }

      .cls-4 {
        filter: url(#drop-shadow-13);
      }
    </style>
    <radialGradient id="radial-gradient" cx="50" cy="50" fx="50" fy="50" r="50" gradientUnits="userSpaceOnUse">
      <stop offset="0" stop-color="#737f8b"/>
      <stop offset=".61" stop-color="#4c5864"/>
      <stop offset="1" stop-color="#384551"/>
    </radialGradient>
    <filter id="drop-shadow-13" filterUnits="userSpaceOnUse">
      <feOffset dx="1" dy="1"/>
      <feGaussianBlur result="blur" stdDeviation="0"/>
      <feFlood flood-color="#000" flood-opacity=".48"/>
      <feComposite in2="blur" operator="in"/>
      <feComposite in="SourceGraphic"/>
    </filter>
  </defs>
  <rect class="cls-1" width="100" height="100"/>
  <g id="dMqmPF" class="cls-4">
    <g>
      <path class="cls-2" d="M53.44,48c-2.32.04-4.64.08-6.98.1-2.34.03-4.66.05-6.98.07,0,0-.3,0-.49-.1-.22-.12-.31-.32-.34-.38-2.8-4.87-5.61-9.74-8.42-14.61-.07-.12-.13-.25-.22-.43h40.05c-.1.19-.18.35-.28.51-1.03,1.79-2.07,3.57-3.08,5.36-.19.35-.41.46-.8.46-8.08-.01-16.16,0-24.24,0h-.65c.54.94,1.03,1.81,1.56,2.66.07.11.35.13.53.13,4.57,0,9.13,0,13.7,0h8.01c-4.93,8.55-9.83,17.03-14.78,25.6-3.17-5.49-6.3-10.92-9.48-16.42h7.29c.73,1.21,1.46,2.42,2.19,3.63,1.14-2.2,2.28-4.4,3.42-6.61Z"/>
      <path class="cls-2" d="M6.78,67.34c6.69-11.59,13.35-23.13,20.05-34.73,2.99,5.18,5.94,10.28,8.92,15.44-.17.02-.29.05-.41.05-2.18,0-4.36,0-6.53,0-.3,0-.47-.1-.61-.36-.42-.77-.87-1.52-1.36-2.37-1.16,2-2.28,3.94-3.45,5.97.27,0,.44,0,.61,0,4.37,0,8.75,0,13.12-.01.42,0,.63.14.83.49,1.02,1.81,2.07,3.61,3.11,5.41.08.13.14.28.25.49-.28,0-.49,0-.7,0-6.78,0-13.56,0-20.34-.01-.44,0-.67.15-.86.52-.49.91-1.02,1.8-1.58,2.78.24,0,.39,0,.55,0,8.1,0,16.19,0,24.29,0,.43,0,.66.12.87.5,1.03,1.83,2.08,3.64,3.13,5.45.06.11.12.22.21.39H6.78Z"/>
      <path class="cls-2" d="M80.4,45.06c.98,1.69,1.92,3.32,2.86,4.95.27.48.73.96.73,1.45,0,.46-.46.94-.73,1.4-.8,1.38-1.61,2.75-2.38,4.14-.19.35-.41.51-.82.53-1.16.08-2.32.21-3.57.33.36.62.69,1.18,1.01,1.73.25.42.49.84.75,1.25.15.23.18.41.03.66-1.09,1.86-2.17,3.74-3.26,5.6-.07.13-.26.26-.4.26-2.31.01-4.62,0-6.93,0-.03,0-.06-.02-.13-.06.07-.14.14-.28.22-.41,1.01-1.76,2.02-3.52,3.05-5.27.17-.29.18-.5,0-.79-.42-.66-.81-1.33-1.19-2.01-.13-.23-.28-.3-.54-.27-1.08.12-2.17.23-3.25.3-.32.02-.49.14-.64.41-1.47,2.57-2.96,5.12-4.42,7.69-.19.33-.39.44-.76.44-2.1-.02-4.19,0-6.29,0-.16,0-.32,0-.53,0,.07-.15.1-.26.15-.35,2.66-4.6,5.32-9.2,7.96-13.8.17-.3.36-.4.68-.42,1.26-.1,2.52-.24,3.85-.37-.59-1-1.13-1.97-1.73-2.89-.27-.42-.27-.73-.02-1.17,3-5.15,5.98-10.32,8.96-15.48.04-.07.09-.14.16-.26.25.42.48.8.7,1.19.93,1.6,1.84,3.21,2.78,4.81.16.27.18.47.02.75-1.78,3.04-3.54,6.09-5.32,9.14-.17.29-.17.5,0,.79.42.67.83,1.36,1.21,2.05.17.31.36.43.73.39,1.02-.12,2.04-.18,3.05-.31.19-.02.42-.22.53-.4,1.07-1.82,2.12-3.65,3.18-5.48.09-.15.18-.3.3-.5Z"/>
      <path class="cls-3" d="M85.69,54.27c2.53,4.39,5.02,8.7,7.54,13.06h-15.08c2.52-4.36,5-8.67,7.54-13.06Z"/>
    </g>
  </g>
</svg>