<?xml version="1.0" encoding="UTF-8"?>
<svg id="Layer_12" data-name="Layer 12" xmlns="http://www.w3.org/2000/svg" xmlns:xlink="http://www.w3.org/1999/xlink" viewBox="0 0 100 100">
  <defs>
    <style>
      .cls-1 {
        fill: aqua;
      }

      .cls-1, .cls-2, .cls-3, .cls-4, .cls-5, .cls-6, .cls-7, .cls-8, .cls-9, .cls-10, .cls-11, .cls-12 {
        stroke-width: 0px;
      }

      .cls-2 {
        fill: url(#radial-gradient-3);
      }

      .cls-2, .cls-3, .cls-4, .cls-5, .cls-6, .cls-7, .cls-11 {
        isolation: isolate;
      }

      .cls-2, .cls-3, .cls-4, .cls-5, .cls-6, .cls-7, .cls-13 {
        opacity: .8;
      }

      .cls-3 {
        fill: url(#radial-gradient-6);
      }

      .cls-4 {
        fill: url(#radial-gradient-4);
      }

      .cls-5 {
        fill: url(#radial-gradient-5);
      }

      .cls-6 {
        fill: url(#radial-gradient-8);
      }

      .cls-7 {
        fill: url(#radial-gradient-7);
      }

      .cls-8 {
        fill: url(#linear-gradient);
      }

      .cls-9 {
        fill: url(#radial-gradient);
      }

      .cls-14 {
        stroke: aqua;
        stroke-width: 3.04px;
      }

      .cls-14, .cls-15 {
        fill: none;
      }

      .cls-14, .cls-16 {
        stroke-miterlimit: 4.05;
      }

      .cls-17 {
        filter: url(#drop-shadow-7);
      }

      .cls-18 {
        filter: url(#drop-shadow-8);
      }

      .cls-15 {
        stroke: #0b1728;
        stroke-miterlimit: 4.12;
        stroke-width: 3.09px;
      }

      .cls-10 {
        fill: url(#radial-gradient-2);
      }

      .cls-11 {
        fill: url(#radial-gradient-9);
        opacity: .56;
      }

      .cls-19 {
        opacity: .5;
      }

      .cls-16 {
        fill: #898989;
        stroke: #fff;
        stroke-width: .75px;
      }

      .cls-12 {
        fill: #fff;
      }
    </style>
    <radialGradient id="radial-gradient" cx="49.63" cy="49.61" fx="49.63" fy="49.61" r="50" gradientUnits="userSpaceOnUse">
      <stop offset="0" stop-color="#737f8b"/>
      <stop offset=".61" stop-color="#4c5864"/>
      <stop offset="1" stop-color="#384551"/>
    </radialGradient>
    <filter id="drop-shadow-7" filterUnits="userSpaceOnUse">
      <feOffset dx="2" dy="2"/>
      <feGaussianBlur result="blur" stdDeviation="2"/>
      <feFlood flood-color="#000" flood-opacity=".5"/>
      <feComposite in2="blur" operator="in"/>
      <feComposite in="SourceGraphic"/>
    </filter>
    <linearGradient id="linear-gradient" x1="411.1" y1="-175.91" x2="388.25" y2="-240.69" gradientTransform="translate(-361.33 -164.68) scale(1.03 -1.03)" gradientUnits="userSpaceOnUse">
      <stop offset="0" stop-color="#737f8b"/>
      <stop offset=".79" stop-color="#384551"/>
      <stop offset="1" stop-color="#1f2833"/>
    </linearGradient>
    <radialGradient id="radial-gradient-2" cx="128.84" cy="-116.08" fx="128.84" fy="-116.08" r="42.51" gradientTransform="translate(160.93 -143.24) rotate(89.38) scale(1.25 -.97)" gradientUnits="userSpaceOnUse">
      <stop offset="0" stop-color="aqua"/>
      <stop offset="1" stop-color="aqua" stop-opacity="0"/>
    </radialGradient>
    <radialGradient id="radial-gradient-3" cx="44.01" cy="784.15" fx="44.01" fy="784.15" r="3.46" gradientTransform="translate(-360.18 73.21) rotate(82.27) scale(.51 -.49)" xlink:href="#radial-gradient-2"/>
    <radialGradient id="radial-gradient-4" cx="-85.25" cy="726.6" fx="-85.25" fy="726.6" r="3.46" gradientTransform="translate(-311.31 154.66) rotate(82.27) scale(.51 -.49)" xlink:href="#radial-gradient-2"/>
    <radialGradient id="radial-gradient-5" cx="49.13" cy="476.29" fx="49.13" fy="476.29" r="3.46" gradientTransform="translate(-162.01 42.83) rotate(82.27) scale(.51 -.49)" xlink:href="#radial-gradient-2"/>
    <radialGradient id="radial-gradient-6" cx="242.7" cy="776.3" fx="242.7" fy="776.3" r="3.46" gradientTransform="translate(-239.76 -29.49) rotate(82.27) scale(.38 -.37)" xlink:href="#radial-gradient-2"/>
    <radialGradient id="radial-gradient-7" cx="201.61" cy="965.15" fx="201.61" fy="965.15" r="3.46" gradientTransform="translate(-329.37 3.9) rotate(82.27) scale(.38 -.37)" xlink:href="#radial-gradient-2"/>
    <radialGradient id="radial-gradient-8" cx="-149.38" cy="1660.48" fx="-149.38" fy="1660.48" r="3.46" gradientTransform="translate(-328.99 166.6) rotate(82.27) scale(.24 -.23)" xlink:href="#radial-gradient-2"/>
    <radialGradient id="radial-gradient-9" cx="34.27" cy="565.91" fx="34.27" fy="565.91" r="3.46" gradientTransform="translate(-154.46 61.76) rotate(82.27) scale(.42 -.41)" xlink:href="#radial-gradient-2"/>
    <filter id="drop-shadow-8" filterUnits="userSpaceOnUse">
      <feOffset dx="2" dy="1"/>
      <feGaussianBlur result="blur-2" stdDeviation="0"/>
      <feFlood flood-color="#000" flood-opacity=".5"/>
      <feComposite in2="blur-2" operator="in"/>
      <feComposite in="SourceGraphic"/>
    </filter>
  </defs>
  <rect class="cls-9" x="-.37" y="-.39" width="100" height="100"/>
  <g class="cls-17">
    <g>
      <g>
        <path class="cls-15" d="M84.88,50.31c0,19.37-15.7,35.07-35.07,35.07S14.74,69.68,14.74,50.31,30.44,15.24,49.81,15.24s35.07,15.7,35.07,35.07Z"/>
        <path class="cls-14" d="M84.31,50.31c0,19.06-15.45,34.5-34.5,34.5S15.3,69.37,15.3,50.31,30.75,15.81,49.81,15.81s34.5,15.45,34.5,34.5Z"/>
        <path class="cls-8" d="M84.88,50.31c0,19.37-15.7,35.07-35.07,35.07S14.74,69.68,14.74,50.31,30.44,15.24,49.81,15.24s35.07,15.7,35.07,35.07Z"/>
        <path class="cls-10" d="M49.81,15.38c-16.69,0-31.68,10.68-34.61,26.52,2.93,10.94,17.91,20.56,34.61,20.56s31.46-8.62,34.39-19.56c-2.93-15.85-17.69-27.52-34.39-27.52Z"/>
        <g class="cls-13">
          <path class="cls-1" d="M49.22,14.43c-4.8.25-9.02,4.3-12.05,10.52-3.13,6.42-5.04,15.23-5.04,24.95s1.91,18.53,5.04,24.95c3.03,6.22,7.25,10.28,12.05,10.52-4.54-.27-8.52-4.32-11.39-10.52-2.97-6.42-4.79-15.23-4.79-24.95s1.82-18.53,4.79-24.95c2.87-6.2,6.85-10.25,11.39-10.52Z"/>
          <path class="cls-1" d="M76.58,27.28c-4.9-5.55-12.16-7.98-19.93-7.63-8.02.37-16.69,3.7-24.19,9.89-7.5,6.19-12.42,14.06-14.3,21.87-1.83,7.56-.82,15.16,3.7,21.02-4.24-5.57-5.02-12.88-3.05-20.23,2.04-7.62,7.05-15.38,14.55-21.57,7.5-6.19,16.08-9.63,23.94-10.19,7.59-.54,14.62,1.62,19.28,6.84h0Z"/>
          <path class="cls-1" d="M74.98,74.79c5.01-5.44,6.69-12.92,5.53-20.61-1.19-7.94-5.4-16.22-12.33-23.04-6.93-6.82-15.27-10.9-23.23-11.97-7.71-1.04-15.16.75-20.53,5.85,5.1-4.79,12.29-6.32,19.81-5.12,7.79,1.24,16.03,5.43,22.95,12.25s11.24,15,12.6,22.76c1.32,7.5-.1,14.71-4.81,19.89h0Z"/>
          <path class="cls-1" d="M26.45,77.64c3.1,2.62,8.2,1.93,13.91-1.16,5.9-3.18,12.54-8.95,18.57-16.55s10.32-15.61,12.39-22.47c2-6.64,1.93-12.29-.86-15.3,2.61,2.88,2.54,8.38.45,14.91-2.16,6.76-6.51,14.72-12.55,22.32s-12.61,13.42-18.41,16.7c-5.6,3.16-10.56,3.99-13.51,1.54h0Z"/>
          <path class="cls-1" d="M24.91,24.87c-4.37,5.98-5.18,13.59-3.16,21.11,2.08,7.75,7.2,15.5,14.85,21.5,7.65,6,16.4,9.11,24.43,9.27,7.78.16,14.98-2.46,19.73-8.13-4.53,5.34-11.5,7.67-19.1,7.33-7.88-.36-16.54-3.58-24.19-9.58-7.65-6-12.86-13.63-15.09-21.19-2.16-7.3-1.56-14.63,2.54-20.3h0Z"/>
          <path class="cls-1" d="M76.19,74.9c1.88-7.12.37-13.53-3.82-19.87-4.33-6.55-11.31-12.03-19.93-14.99-8.62-2.96-17.27-2.83-24.33-.2-6.84,2.55-11.6,6.09-13.91,13.06,2.22-6.58,6.87-9.77,13.62-12.09,6.99-2.4,15.6-2.39,24.22.57,8.62,2.96,15.64,8.31,20.04,14.62,4.25,6.09,5.85,12.16,4.11,18.9h0Z"/>
        </g>
        <g class="cls-19">
          <path class="cls-1" d="M49.22,14.43c-4.8.25-9.02,4.3-12.05,10.52-3.13,6.42-5.04,15.23-5.04,24.95s1.91,18.53,5.04,24.95c3.03,6.22,7.25,10.28,12.05,10.52-4.54-.27-8.52-4.32-11.39-10.52-2.97-6.42-4.79-15.23-4.79-24.95s1.82-18.53,4.79-24.95c2.87-6.2,6.85-10.25,11.39-10.52Z"/>
          <path class="cls-1" d="M76.58,27.28c-4.9-5.55-12.16-7.98-19.93-7.63-8.02.37-16.69,3.7-24.19,9.89-7.5,6.19-12.42,14.06-14.3,21.87-1.83,7.56-.82,15.16,3.7,21.02-4.24-5.57-5.02-12.88-3.05-20.23,2.04-7.62,7.05-15.38,14.55-21.57,7.5-6.19,16.08-9.63,23.94-10.19,7.59-.54,14.62,1.62,19.28,6.84h0Z"/>
          <path class="cls-1" d="M74.98,74.79c5.01-5.44,6.69-12.92,5.53-20.61-1.19-7.94-5.4-16.22-12.33-23.04-6.93-6.82-15.27-10.9-23.23-11.97-7.71-1.04-15.16.75-20.53,5.85,5.1-4.79,12.29-6.32,19.81-5.12,7.79,1.24,16.03,5.43,22.95,12.25s11.24,15,12.6,22.76c1.32,7.5-.1,14.71-4.81,19.89h0Z"/>
          <path class="cls-1" d="M26.45,77.64c3.1,2.62,8.2,1.93,13.91-1.16,5.9-3.18,12.54-8.95,18.57-16.55s10.32-15.61,12.39-22.47c2-6.64,1.93-12.29-.86-15.3,2.61,2.88,2.54,8.38.45,14.91-2.16,6.76-6.51,14.72-12.55,22.32s-12.61,13.42-18.41,16.7c-5.6,3.16-10.56,3.99-13.51,1.54h0Z"/>
          <path class="cls-1" d="M24.91,24.87c-4.37,5.98-5.18,13.59-3.16,21.11,2.08,7.75,7.2,15.5,14.85,21.5,7.65,6,16.4,9.11,24.43,9.27,7.78.16,14.98-2.46,19.73-8.13-4.53,5.34-11.5,7.67-19.1,7.33-7.88-.36-16.54-3.58-24.19-9.58-7.65-6-12.86-13.63-15.09-21.19-2.16-7.3-1.56-14.63,2.54-20.3h0Z"/>
          <path class="cls-1" d="M75.19,74.9c1.88-7.12,1.37-13.53-2.82-19.87-4.33-6.55-11.31-12.03-19.93-14.99-8.62-2.96-17.27-2.83-24.33-.2-6.84,2.55-11.6,6.09-13.91,13.06,2.22-6.58,6.87-9.77,13.62-12.09,6.99-2.4,15.6-2.39,24.22.57,8.62,2.96,15.64,8.31,20.04,14.62,4.25,6.09,4.85,12.16,3.11,18.9h0Z"/>
        </g>
        <path id="p" class="cls-2" d="M24.01,43.59c0,1.4-1.05,2.54-2.36,2.54s-2.36-1.14-2.36-2.54,1.05-2.54,2.36-2.54,2.36,1.14,2.36,2.54Z"/>
        <g id="q">
          <path id="p-2" data-name="p" class="cls-4" d="M36.28,64.04c0,1.4-1.05,2.54-2.36,2.54s-2.36-1.14-2.36-2.54,1.05-2.54,2.36-2.54,2.36,1.14,2.36,2.54Z"/>
        </g>
        <g id="q-2" data-name="q">
          <path id="p-3" data-name="p" class="cls-5" d="M73.77,35.96c0,1.4-1.05,2.54-2.36,2.54s-2.36-1.14-2.36-2.54,1.05-2.54,2.36-2.54,2.36,1.14,2.36,2.54Z"/>
        </g>
        <path id="b" class="cls-3" d="M59.03,23.95c0,1.06-.8,1.93-1.79,1.93s-1.79-.86-1.79-1.93.8-1.93,1.79-1.93,1.79.86,1.79,1.93Z"/>
        <path class="cls-12" d="M44.8,19.58c1.86.32,3.66.85,5.46,1.4-12.89,3.2-24.24,12.52-29.7,24.65-.88,2.02-1.6,4.1-2.09,6.26.82-2.97,2.13-6.14,3.64-8.56.63-1.23,1.71-2.87,2.66-4.17,3.17-4.37,7.14-8.12,11.54-11.27,1.82-1.18,4.02-2.58,6.12-3.6,2.69-1.27,5.52-2.51,8.41-3.07,11.79,4.36,21.62,13.76,26.72,25.22,1.15,2.64,2.02,5.4,2.53,8.24-1.84-12.62-10.3-23.58-21.11-30.05-2.47-1.47-5.11-2.64-7.82-3.6,1.95-.4,3.9-.79,5.89-.92-2.17.04-4.31.44-6.42.78-1.96-.61-3.98-1.08-6.02-1.32l.2.03h0ZM34.05,35.42c.09-.37.07-.3,0,0ZM33.92,36.03c-.2.92-.37,1.84-.52,2.77-1.84.35-3.66.84-5.41,1.51,1.74-.58,3.54-.98,5.36-1.27-1.27,8.23-1.07,16.7.56,24.86-5.35-5.09-9.73-11.32-11.89-18.44,2.98,11.32,11.36,20.59,21.55,26.08,5.44,2.91,11.57,4.72,17.78,4.79-10.3-.61-19.92-5.52-27.41-12.44-1.58-8.17-1.74-16.63-.54-24.86,12.32-1.71,25.18,2.75,34.22,11.18,1.55,1.47,2.99,3.08,4.26,4.81-8.02-11.72-22.91-18.28-37-16.47-1.57.63-1.5-.34-1.12-1.62.03-.22.45-2.24.16-.92h0ZM21.57,43.32c-.03.17.15,0,0,0Z"/>
        <path class="cls-12" d="M72.68,29.05c-.36,2.29-.81,6.21-1.22,6.96l-10.09,2.08,10.23-1.86,9.06,4.73-8.85-4.9c.34-1.48.78-5.11.86-7.02h0Z"/>
        <path id="b-2" data-name="b" class="cls-7" d="M36.53,32.34c0,1.06-.8,1.93-1.79,1.93s-1.79-.86-1.79-1.93.8-1.93,1.79-1.93,1.79.86,1.79,1.93Z"/>
        <path id="b-3" data-name="b" class="cls-6" d="M42.39,80.61c0,.66-.49,1.19-1.1,1.19s-1.1-.53-1.1-1.19.49-1.19,1.1-1.19,1.1.53,1.1,1.19Z"/>
        <path class="cls-11" d="M78.85,44.81c0,1.18-.88,2.13-1.98,2.13s-1.98-.95-1.98-2.13.88-2.13,1.98-2.13,1.98.95,1.98,2.13Z"/>
      </g>
      <g class="cls-19">
        <path class="cls-1" d="M49.22,14.42c-4.8.25-9.02,4.3-12.05,10.52-3.13,6.42-5.04,15.23-5.04,24.95s1.91,18.53,5.04,24.95c3.03,6.22,7.25,10.28,12.05,10.52-4.54-.27-8.52-4.32-11.39-10.52-2.97-6.42-4.79-15.23-4.79-24.95s1.82-18.53,4.79-24.95c2.87-6.2,6.85-10.25,11.39-10.52Z"/>
        <path class="cls-1" d="M76.58,27.28c-4.9-5.55-12.16-7.98-19.93-7.63-8.02.37-16.69,3.7-24.19,9.89-7.5,6.19-12.42,14.06-14.3,21.87-1.83,7.56-.82,15.15,3.7,21.02-4.24-5.57-5.02-12.88-3.05-20.23,2.04-7.62,7.05-15.38,14.55-21.57,7.5-6.19,16.07-9.63,23.94-10.19,7.59-.54,14.62,1.62,19.28,6.84h0Z"/>
        <path class="cls-1" d="M74.98,74.78c5.01-5.44,6.69-12.92,5.53-20.61-1.19-7.94-5.4-16.22-12.33-23.04-6.93-6.82-15.27-10.9-23.23-11.97-7.71-1.04-15.16.75-20.52,5.85,5.1-4.79,12.29-6.32,19.81-5.12,7.79,1.24,16.03,5.43,22.95,12.25,6.93,6.82,11.24,15,12.6,22.76,1.32,7.5-.1,14.71-4.81,19.89h0Z"/>
        <path class="cls-1" d="M26.45,77.63c3.1,2.62,8.2,1.93,13.91-1.16,5.9-3.18,12.54-8.95,18.57-16.55,6.03-7.6,10.32-15.61,12.39-22.47,2-6.64,1.93-12.29-.86-15.3,2.61,2.88,2.54,8.38.45,14.91-2.16,6.76-6.51,14.72-12.55,22.32-6.03,7.6-12.61,13.42-18.41,16.7-5.6,3.16-10.56,3.99-13.51,1.54h0Z"/>
        <path class="cls-1" d="M24.91,24.86c-4.37,5.98-5.18,13.59-3.16,21.11,2.08,7.75,7.2,15.5,14.85,21.5s16.4,9.11,24.43,9.27c7.78.16,14.98-2.46,19.73-8.13-4.53,5.34-11.5,7.67-19.1,7.33-7.88-.36-16.54-3.58-24.19-9.58-7.65-6-12.86-13.63-15.09-21.19-2.16-7.3-1.56-14.63,2.54-20.3h0Z"/>
        <path class="cls-1" d="M76.19,74.9c1.88-7.12.37-13.54-3.82-19.88-4.33-6.55-11.31-12.03-19.93-14.99-8.62-2.96-17.27-2.83-24.33-.2-6.84,2.55-11.6,6.1-13.91,13.07,2.22-6.58,6.87-9.78,13.62-12.1,6.99-2.4,15.6-2.39,24.22.57,8.62,2.96,15.64,8.31,20.04,14.62,4.25,6.09,4.85,12.16,3.11,18.91h1Z"/>
      </g>
      <g class="cls-13">
        <path class="cls-1" d="M49.22,14.42c-4.8.25-9.02,4.3-12.05,10.52-3.13,6.42-5.04,15.23-5.04,24.95s1.91,18.53,5.04,24.95c3.03,6.22,7.25,10.28,12.05,10.52-4.54-.27-8.52-4.32-11.39-10.52-2.97-6.42-4.79-15.23-4.79-24.95s1.82-18.53,4.79-24.95c2.87-6.2,6.85-10.25,11.39-10.52Z"/>
        <path class="cls-1" d="M76.58,27.28c-4.9-5.55-12.16-7.98-19.93-7.63-8.02.37-16.69,3.7-24.19,9.89-7.5,6.19-12.42,14.06-14.3,21.87-1.83,7.56-.82,15.15,3.7,21.02-4.24-5.57-5.02-12.88-3.05-20.23,2.04-7.62,7.05-15.38,14.55-21.57,7.5-6.19,16.07-9.63,23.94-10.19,7.59-.54,14.62,1.62,19.28,6.84h0Z"/>
        <path class="cls-1" d="M74.98,74.78c5.01-5.44,6.69-12.92,5.53-20.61-1.19-7.94-5.4-16.22-12.33-23.04-6.93-6.82-15.27-10.9-23.23-11.97-7.71-1.04-15.16.75-20.52,5.85,5.1-4.79,12.29-6.32,19.81-5.12,7.79,1.24,16.03,5.43,22.95,12.25,6.93,6.82,11.24,15,12.6,22.76,1.32,7.5-.1,14.71-4.81,19.89h0Z"/>
        <path class="cls-1" d="M26.45,77.63c3.1,2.62,8.2,1.93,13.91-1.16,5.9-3.18,12.54-8.95,18.57-16.55,6.03-7.6,10.32-15.61,12.39-22.47,2-6.64,1.93-12.29-.86-15.3,2.61,2.88,2.54,8.38.45,14.91-2.16,6.76-6.51,14.72-12.55,22.32-6.03,7.6-12.61,13.42-18.41,16.7-5.6,3.16-10.56,3.99-13.51,1.54h0Z"/>
        <path class="cls-1" d="M24.91,24.86c-4.37,5.98-5.18,13.59-3.16,21.11,2.08,7.75,7.2,15.5,14.85,21.5s16.4,9.11,24.43,9.27c7.78.16,14.98-2.46,19.73-8.13-4.53,5.34-11.5,7.67-19.1,7.33-7.88-.36-16.54-3.58-24.19-9.58-7.65-6-12.86-13.63-15.09-21.19-2.16-7.3-1.56-14.63,2.54-20.3h0Z"/>
        <path class="cls-1" d="M77.19,72.9c1.88-7.12-.63-11.54-4.82-17.88-4.33-6.55-11.31-12.03-19.93-14.99-8.62-2.96-17.27-2.83-24.33-.2-6.84,2.55-11.6,6.1-13.91,13.07,2.22-6.58,6.87-9.78,13.62-12.1,6.99-2.4,15.6-2.39,24.22.57,8.62,2.96,15.64,8.31,20.04,14.62,4.25,6.09,5.85,11.16,4.11,17.91l1-1Z"/>
      </g>
      <path class="cls-12" d="M44.8,19.58c1.86.32,3.66.85,5.46,1.4-12.89,3.2-24.24,12.52-29.7,24.65-.88,2.03-1.6,4.1-2.09,6.26.82-2.97,2.13-6.14,3.64-8.56.63-1.23,1.71-2.87,2.66-4.17,3.17-4.37,7.13-8.12,11.54-11.27,1.82-1.18,4.02-2.58,6.12-3.6,2.69-1.27,5.52-2.51,8.41-3.07,11.79,4.36,21.62,13.76,26.72,25.22,1.15,2.64,2.02,5.4,2.53,8.24-1.84-12.62-10.3-23.58-21.11-30.05-2.47-1.47-5.11-2.64-7.82-3.6,1.95-.4,3.9-.79,5.89-.92-2.17.04-4.31.44-6.42.78-1.96-.61-3.98-1.08-6.02-1.32l.2.03h0ZM34.05,35.42c.09-.37.07-.3,0,0ZM33.92,36.02c-.2.92-.37,1.84-.52,2.77-1.84.35-3.66.84-5.41,1.51,1.74-.58,3.54-.98,5.36-1.27-1.27,8.23-1.07,16.7.56,24.86-5.35-5.09-9.73-11.32-11.89-18.44,2.98,11.32,11.36,20.59,21.55,26.07,5.44,2.91,11.57,4.72,17.78,4.79-10.3-.61-19.92-5.52-27.41-12.44-1.58-8.16-1.74-16.63-.54-24.86,12.32-1.71,25.18,2.75,34.22,11.18,1.55,1.47,2.99,3.08,4.26,4.81-8.02-11.73-22.91-18.28-37-16.47-1.57.63-1.5-.34-1.12-1.62.03-.22.45-2.24.16-.92h0ZM21.57,43.32c-.03.17.15,0,0,0Z"/>
    </g>
  </g>
  <g class="cls-18">
    <path class="cls-16" d="M38.57,61.55c1.5.96,4.98,2.46,8.64,2.46,6.78,0,8.88-4.32,8.82-7.56-.06-5.46-4.98-7.8-10.08-7.8h-2.94v-3.96h2.94c3.84,0,8.7-1.98,8.7-6.6,0-3.12-1.98-5.88-6.84-5.88-3.12,0-6.12,1.38-7.8,2.58l-1.38-3.84c2.04-1.5,6-3,10.2-3,7.68,0,11.16,4.56,11.16,9.3,0,4.02-2.4,7.44-7.2,9.18v.12c4.8.96,8.7,4.56,8.7,10.02,0,6.24-4.86,11.7-14.22,11.7-4.38,0-8.22-1.38-10.14-2.64l1.44-4.08Z"/>
  </g>
</svg>