<?xml version="1.0" encoding="UTF-8"?>
<svg id="Layer_11" data-name="Layer 11" xmlns="http://www.w3.org/2000/svg" xmlns:xlink="http://www.w3.org/1999/xlink" viewBox="0 0 100 100">
  <defs>
    <style>
      .cls-1 {
        fill: url(#radial-gradient);
        stroke-width: 0px;
      }

      .cls-2 {
        fill: #898989;
        stroke: #ccc;
        stroke-miterlimit: 10;
        stroke-width: .25px;
      }

      .cls-3, .cls-4 {
        fill: #c5c6c7;
        font-family: ArialNarrow, 'Arial Narrow';
        font-size: 18px;
      }

      .cls-5 {
        filter: url(#drop-shadow-1);
      }

      .cls-4 {
        filter: url(#drop-shadow-2);
      }
    </style>
    <radialGradient id="radial-gradient" cx="50" cy="50" fx="50" fy="50" r="50" gradientUnits="userSpaceOnUse">
      <stop offset="0" stop-color="#737f8b"/>
      <stop offset=".61" stop-color="#4c5864"/>
      <stop offset="1" stop-color="#384551"/>
    </radialGradient>
    <filter id="drop-shadow-1" filterUnits="userSpaceOnUse">
      <feOffset dx="1" dy="1"/>
      <feGaussianBlur result="blur" stdDeviation="0"/>
      <feFlood flood-color="#000" flood-opacity=".5"/>
      <feComposite in2="blur" operator="in"/>
      <feComposite in="SourceGraphic"/>
    </filter>
    <filter id="drop-shadow-2" filterUnits="userSpaceOnUse">
      <feOffset dx="1" dy="1"/>
      <feGaussianBlur result="blur-2" stdDeviation="0"/>
      <feFlood flood-color="#000" flood-opacity=".5"/>
      <feComposite in2="blur-2" operator="in"/>
      <feComposite in="SourceGraphic"/>
    </filter>
  </defs>
  <rect class="cls-1" width="100" height="100"/>
  <g class="cls-5">
    <path class="cls-2" d="M42.22,37.42c-16.38,5.72-28.42,20.99-29.14,39.38-.18,4.62.36,9.1,1.53,13.32l.14-.05c-1.15-4.17-1.68-8.58-1.47-13.14.04-.99.12-1.97.24-2.95,3.36.54,6.78.89,10.24,1.04.32,3.86,1.04,7.64,2.1,11.28l.1-.03c-1.06-3.62-1.76-7.4-2.06-11.24,2.84.12,5.72.1,8.61-.06,1.94-.11,3.86-.27,5.76-.5.56,2.34,1.2,4.67,1.92,6.96l.06-.02c-.72-2.29-1.36-4.61-1.91-6.95,5.98-.72,11.76-2.02,17.29-3.86l2.91,8.27-2.78-8.32c5.4-1.8,10.55-4.1,15.42-6.84.91,2.04,1.77,4.15,2.56,6.31l.06-.02c-.79-2.16-1.65-4.28-2.56-6.33,3.92-2.21,7.64-4.71,11.15-7.47,1.81,2.89,3.38,6.01,4.66,9.29l.11-.04c-1.28-3.29-2.85-6.43-4.65-9.34,2.38-1.87,4.65-3.86,6.82-5.96,3.13,3.55,5.66,7.61,7.46,12.04l.14-.05c-6.23-15.34-20.99-26.43-38.62-27.13-4.43-.18-8.74.32-12.82,1.39-.35.08-.7.17-1.04.27-.27.06-.53.14-.78.24-.02,0-.04.02-.06.02-.18.06-.36.12-.54.18-.04.01-.07.03-.11.04-.24.08-.48.16-.72.24h0ZM43.66,37.69c.1-.03.21-.07.31-.1l1.76,4.98c-2.59.83-5.21,1.48-7.82,1.95,1.3-3.48,3.26-5.84,5.75-6.83h0ZM44.67,37.38c.06-.02.13-.03.19-.05,1.8-.38,3.84-.11,6.08.89.8.36,1.59.8,2.4,1.31-2.15,1.04-4.38,1.96-6.7,2.75-.1.03-.2.07-.31.1l-1.67-4.99h0ZM40.68,38.9c-1.34,1.37-2.43,3.29-3.22,5.7-1.66.28-3.33.49-4.99.63,2.36-2.68,5.13-4.83,8.21-6.33h0ZM47.95,36.67c2.38-.34,4.88-.34,7.46.03.8.11,1.59.26,2.37.44-1.31.77-2.65,1.5-4.03,2.18-1-.7-2.01-1.28-3-1.74-.98-.44-1.91-.75-2.81-.92h0ZM36.39,40.73c-1.72,1.3-3.3,2.82-4.72,4.56-.79.05-1.57.09-2.36.11,2.19-1.77,4.56-3.34,7.08-4.67h0ZM52.97,35.83c1.8-.16,3.62-.22,5.47-.15.53.02,1.05.05,1.57.08-.51.33-1.03.66-1.55.98-1.06-.28-2.14-.51-3.22-.67-.77-.12-1.53-.19-2.28-.24h0ZM28.62,45.97c.86-.01,1.72-.05,2.59-.1-1.62,2.08-3.01,4.43-4.15,7.03-1.6-.06-3.19-.18-4.77-.35,1.88-2.41,4-4.61,6.33-6.58h0ZM60.92,35.83c3.61.33,7.07,1.09,10.35,2.23-1.17.96-2.37,1.88-3.6,2.76-2.7-1.69-5.54-3-8.48-3.87.58-.36,1.16-.73,1.72-1.12h0ZM31.96,45.83s0,0,0,0c1.77-.13,3.54-.34,5.31-.63-.64,2.14-1.07,4.63-1.27,7.43-2.85.28-5.69.38-8.5.29,1.23-2.63,2.72-5.01,4.45-7.09h0ZM58.56,37.33c3.04.78,5.98,2.04,8.77,3.71-2.27,1.59-4.65,3.04-7.14,4.35-1.94-2.3-3.93-4.23-5.93-5.7,1.47-.73,2.9-1.52,4.29-2.36ZM37.7,45.12c2.75-.47,5.49-1.14,8.21-2.02l2.5,7.09c-2.02.6-4.08,1.11-6.19,1.52-2,.39-4,.68-5.99.89.24-2.84.74-5.35,1.47-7.48h0ZM53.88,39.89c2.06,1.41,4.11,3.31,6.12,5.62-3.51,1.83-7.22,3.35-11.11,4.54l-2.38-7.14c.1-.03.2-.06.3-.1,2.45-.83,4.8-1.81,7.07-2.92h0ZM22.07,52.83c1.61.17,3.23.28,4.87.33-1.32,3.07-2.28,6.47-2.84,10.12-2.56-.14-5.11-.41-7.62-.8,1.44-3.47,3.33-6.71,5.59-9.65ZM71.53,38.15c3.15,1.12,6.12,2.59,8.87,4.36-1.63,1.56-3.33,3.04-5.11,4.45-2.31-2.33-4.81-4.37-7.44-6.04,1.26-.89,2.49-1.81,3.68-2.78h0ZM27.38,53.17c2.84.07,5.72-.04,8.61-.33-.2,3.04-.11,6.43.27,10.12-4,.43-7.98.54-11.91.34.6-3.67,1.64-7.06,3.03-10.12h0ZM67.52,41.16c2.69,1.63,5.23,3.64,7.58,5.95-2.9,2.3-5.99,4.39-9.24,6.26-1.77-2.91-3.64-5.56-5.55-7.84,2.51-1.31,4.92-2.78,7.21-4.37h0ZM36.22,52.81c1.93-.21,3.87-.49,5.81-.87,2.2-.43,4.34-.96,6.44-1.59l3.27,9.29c-1.71.56-3.46,1.06-5.23,1.5-3.38.84-6.76,1.43-10.13,1.8-.36-3.7-.4-7.1-.16-10.13h0ZM60.12,45.64c1.95,2.25,3.85,4.88,5.64,7.8-4.28,2.45-8.86,4.5-13.7,6.1l-3.12-9.33c3.91-1.2,7.64-2.73,11.17-4.56h0ZM16.33,62.86c2.55.38,5.12.64,7.72.76-.44,3.04-.59,6.25-.43,9.6.02.51.06,1.02.1,1.53-3.44-.17-6.84-.54-10.18-1.1.46-3.77,1.42-7.39,2.79-10.79h0ZM80.64,42.67c3.1,2.03,5.91,4.44,8.37,7.17-2.14,2.1-4.38,4.09-6.72,5.97-2.01-3.19-4.3-6.11-6.81-8.68,1.79-1.42,3.52-2.91,5.17-4.47ZM24.3,63.63c3.96.17,7.96.04,11.99-.42.19,1.75.44,3.57.77,5.45.32,1.87.71,3.75,1.15,5.61-1.79.21-3.59.36-5.41.46-3,.16-5.98.17-8.93.03-.03-.46-.06-.93-.08-1.39-.15-3.4.03-6.66.51-9.74h0ZM75.28,47.29c2.55,2.54,4.87,5.43,6.89,8.61-3.48,2.78-7.18,5.3-11.07,7.53-1.58-3.53-3.31-6.86-5.14-9.89,3.28-1.87,6.39-3.96,9.32-6.25h0ZM36.4,63.19c3.29-.38,6.59-.97,9.89-1.79,1.87-.46,3.7-1,5.51-1.59l3.73,10.6c-5.52,1.84-11.29,3.15-17.26,3.85-.42-1.81-.79-3.62-1.1-5.44-.33-1.94-.59-3.82-.77-5.62h0ZM65.86,53.59c1.85,3.02,3.6,6.34,5.18,9.87-4.84,2.77-9.98,5.09-15.37,6.9l-3.56-10.65c4.84-1.61,9.44-3.67,13.74-6.11h0Z"/>
  </g>
  <text class="cls-4" transform="translate(22.43 45.85) rotate(-39.54)"><tspan x="0" y="0">V</tspan></text>
  <text class="cls-3" transform="translate(29.56 39.89) rotate(-28.44)"><tspan x="0" y="0">P</tspan></text>
  <text class="cls-3" transform="translate(37.77 35.47) rotate(-17.98)"><tspan x="0" y="0">L</tspan></text>
  <text class="cls-3" transform="translate(45.05 32.97) rotate(-7.72)"><tspan x="0" y="0">S</tspan></text>
  <text class="cls-3" transform="translate(54.42 31.87) rotate(.19)"><tspan x="0" y="0"> </tspan></text>
  <text class="cls-3" transform="translate(58.17 31.74) rotate(7.04)"><tspan x="0" y="0">1</tspan></text>
</svg>