<?xml version="1.0" encoding="UTF-8"?>
<svg id="Layer_2" data-name="Layer 2" xmlns="http://www.w3.org/2000/svg" viewBox="0 0 1248.1 297">
  <defs>
    <style>
      .cls-1 {
        stroke-width: 5px;
      }

      .cls-1, .cls-2, .cls-3 {
        stroke: #fff;
      }

      .cls-1, .cls-2, .cls-3, .cls-4 {
        fill: none;
        stroke-miterlimit: 10;
      }

      .cls-3 {
        stroke-width: 3px;
      }

      .cls-5 {
        fill: #f2f2f2;
        stroke-width: 0px;
      }

      .cls-4 {
        fill: #ffffff;
        stroke: white;
        stroke-width: 4px;
        cursor: pointer;
      }

      .active {
        fill: #000;
      }
    </style>
  </defs>
  <g id="Layer_6" data-name="Layer 6">
    <g>
      <rect class="cls-3" x="107.25" y="181.69" width="27" height="58" rx="5.03" ry="5.03"/>
      <path class="cls-3" d="M22.5,2.69h57.75v292H23.73c-11.95,0-21.66-9.7-21.66-21.66V23.13C2.07,11.85,11.23,2.69,22.5,2.69Z"/>
      <rect class="cls-2" x="291.7" y="226.5" width="30.53" height="15" rx="5.03" ry="5.03"/>
      <rect class="cls-1" x="2.5" y="2.5" width="1243.1" height="292" rx="20" ry="20"/>
      <!-- <rect class="cls-3" x="332.63" y="59.69" width="200" height="180" rx="5.03" ry="5.03"/> -->
      <!-- <rect class="cls-3" x="563.63" y="59.69" width="200" height="180" rx="5.03" ry="5.03"/> -->
      <!-- <rect class="cls-3" x="162.76" y="156.74" width="95" height="86" rx="5.03" ry="5.03"/> -->
      <!-- <rect class="cls-3" x="821.76" y="156.74" width="95" height="86" rx="5.03" ry="5.03"/> -->
      <!-- <rect class="cls-3" x="959.76" y="156.74" width="95" height="86" rx="5.03" ry="5.03"/> -->
      <rect class="cls-2" x="189.26" y="250.12" width="42.07" height="22" rx="3" ry="3"/>
      <g>
        <path class="cls-5" d="M200.58,255.88c1.7,0,2.08-.82,2.42-1.76h1.48v14h-2.2v-10.68h-1.7v-1.56Z"/>
        <path class="cls-5" d="M211.96,254.11h1.9l-5.52,14h-1.9l5.52-14Z"/>
        <path class="cls-5" d="M216.12,255.88c1.7,0,2.08-.82,2.42-1.76h1.48v14h-2.2v-10.68h-1.7v-1.56Z"/>
      </g>
      <rect class="cls-2" x="986.26" y="252.08" width="42.07" height="22" rx="3" ry="3"/>
      <g>
        <path class="cls-5" d="M996.93,257.91c1.7,0,2.08-.82,2.42-1.76h1.48v14h-2.2v-10.68h-1.7v-1.56Z"/>
        <path class="cls-5" d="M1008.31,256.15h1.9l-5.52,14h-1.9l5.52-14Z"/>
        <path class="cls-5" d="M1014.33,257.99c-.7,0-1.14.38-1.14,1.38v1.5h-2.08v-1.36c0-2.24,1.12-3.52,3.28-3.52s3.28,1.28,3.28,3.52c0,1.86-.68,3.36-2.72,5.54-1.3,1.4-1.66,2.06-1.66,2.8,0,.1,0,.2.02.3h4.16v2h-6.36v-1.72c0-1.56.56-2.74,2.2-4.46,1.68-1.78,2.16-2.88,2.16-4.38,0-1.26-.44-1.6-1.14-1.6Z"/>
      </g>
      <circle class="cls-3" cx="41.25" cy="228.69" r="16"/>



      <g>
        <rect class="cls-2" x="358.87" y="24.55" width="42.07" height="22" rx="3" ry="3"/>
        <g>
          <path class="cls-5" d="M369.59,30.16c1.7,0,2.08-.82,2.42-1.76h1.48v14h-2.2v-10.68h-1.7v-1.56Z"/>
          <path class="cls-5" d="M380.97,28.4h1.9l-5.52,14h-1.9l5.52-14Z"/>
          <path class="cls-5" d="M388.01,31.84c0-1.26-.44-1.6-1.14-1.6s-1.14.38-1.14,1.38v.9h-2.08v-.76c0-2.24,1.12-3.52,3.28-3.52s3.28,1.28,3.28,3.52v.36c0,1.5-.48,2.42-1.54,2.86v.04c1.1.48,1.54,1.5,1.54,2.92v1.1c0,2.24-1.12,3.52-3.28,3.52s-3.28-1.28-3.28-3.52v-1.16h2.08v1.3c0,1,.44,1.38,1.14,1.38s1.14-.34,1.14-1.58v-1.1c0-1.3-.44-1.78-1.44-1.78h-.74v-2h.86c.82,0,1.32-.36,1.32-1.48v-.78Z"/>
        </g>
      </g>

      <g>
        <rect class="cls-2" x="464.47" y="24.55" width="42.07" height="22" rx="3" ry="3"/>
        <g>
          <path class="cls-5" d="M475.18,30.23c1.7,0,2.08-.82,2.42-1.76h1.48v14h-2.2v-10.68h-1.7v-1.56Z"/>
          <path class="cls-5" d="M486.56,28.47h1.9l-5.52,14h-1.9l5.52-14Z"/>
          <path class="cls-5" d="M491.34,37.95v1.3c0,1,.44,1.36,1.14,1.36s1.14-.36,1.14-1.36v-3.08c0-1-.44-1.38-1.14-1.38s-1.14.38-1.14,1.38v.42h-2.08l.4-8.12h5.8v2h-3.84l-.18,3.34h.04c.4-.66,1.02-1.02,1.9-1.02,1.62,0,2.44,1.14,2.44,3.2v3.12c0,2.24-1.12,3.52-3.28,3.52s-3.28-1.28-3.28-3.52v-1.16h2.08Z"/>
        </g>
      </g>

      <g>
        <rect class="cls-2" x="463.85" y="250.99" width="42.07" height="22" rx="3" ry="3"/>
        <g>
          <path class="cls-5" d="M474.52,256.75c1.7,0,2.08-.82,2.42-1.76h1.48v14h-2.2v-10.68h-1.7v-1.56Z"/>
          <path class="cls-5" d="M485.9,254.99h1.9l-5.52,14h-1.9l5.52-14Z"/>
          <path class="cls-5" d="M488.56,258.47c0-2.36,1.08-3.64,3.36-3.64,2.16,0,3.28,1.28,3.28,3.52v.36h-2.08v-.5c0-1-.44-1.38-1.14-1.38-.78,0-1.22.38-1.22,1.72v2.54h.04c.38-.8,1.02-1.22,2-1.22,1.62,0,2.44,1.14,2.44,3.2v2.56c0,2.24-1.18,3.52-3.34,3.52s-3.34-1.28-3.34-3.52v-7.16ZM490.76,263.25v2.52c0,1,.44,1.36,1.14,1.36s1.14-.36,1.14-1.36v-2.52c0-1-.44-1.38-1.14-1.38s-1.14.38-1.14,1.38Z"/>
        </g>
      </g>

      <g>
        <rect class="cls-2" x="358.33" y="250.99" width="42.07" height="22" rx="3" ry="3"/>
        <g>
          <path class="cls-5" d="M368.81,256.75c1.7,0,2.08-.82,2.42-1.76h1.48v14h-2.2v-10.68h-1.7v-1.56Z"/>
          <path class="cls-5" d="M380.19,254.99h1.9l-5.52,14h-1.9l5.52-14Z"/>
          <path class="cls-5" d="M382.47,264.45l4-9.46h2.4v9.46h1.04v2h-1.04v2.54h-2.2v-2.54h-4.2v-2ZM386.67,264.45v-5.18h-.04l-2.14,5.18h2.18Z"/>
        </g>
      </g>

      <g>
        <rect class="cls-2" x="590.07" y="23.55" width="42.07" height="22" rx="3" ry="3"/>
        <g>
          <path class="cls-5" d="M600.78,29.31c1.7,0,2.08-.82,2.42-1.76h1.48v14h-2.2v-10.68h-1.7v-1.56Z"/>
          <path class="cls-5" d="M612.16,27.55h1.9l-5.52,14h-1.9l5.52-14Z"/>
          <path class="cls-5" d="M621.42,27.55v1.92l-3.24,12.08h-2.2l3.22-12h-4.38v-2h6.6Z"/>
        </g>
      </g>

      <g>
        <rect class="cls-2" x="694.67" y="23.26" width="42.07" height="22" rx="3" ry="3"/>
        <g>
          <path class="cls-5" d="M705.38,29.02c1.7,0,2.08-.82,2.42-1.76h1.48v14h-2.2v-10.68h-1.7v-1.56Z"/>
          <path class="cls-5" d="M716.76,27.26h1.9l-5.52,14h-1.9l5.52-14Z"/>
          <path class="cls-5" d="M726.02,37.78c0,2.36-1.08,3.64-3.36,3.64-2.16,0-3.28-1.28-3.28-3.52v-.36h2.08v.5c0,1,.44,1.38,1.14,1.38.78,0,1.22-.38,1.22-1.72v-2.54h-.04c-.38.8-1.02,1.22-2,1.22-1.62,0-2.44-1.14-2.44-3.2v-2.56c0-2.24,1.18-3.52,3.34-3.52s3.34,1.28,3.34,3.52v7.16ZM723.82,33v-2.52c0-1-.44-1.36-1.14-1.36s-1.14.36-1.14,1.36v2.52c0,1,.44,1.38,1.14,1.38s1.14-.38,1.14-1.38Z"/>
        </g>
      </g>

      <g>
        <rect class="cls-2" x="589.87" y="250.99" width="42.07" height="22" rx="3" ry="3"/>
        <g>
          <path class="cls-5" d="M600.51,256.75c1.7,0,2.08-.82,2.42-1.76h1.48v14h-2.2v-10.68h-1.7v-1.56Z"/>
          <path class="cls-5" d="M611.89,254.99h1.9l-5.52,14h-1.9l5.52-14Z"/>
          <path class="cls-5" d="M617.85,269.15c-2.22,0-3.44-1.28-3.44-3.52v-1.1c0-1.34.4-2.36,1.36-2.9v-.04c-.92-.5-1.36-1.42-1.36-2.8v-.44c0-2.24,1.22-3.52,3.44-3.52s3.44,1.28,3.44,3.52v.44c0,1.38-.46,2.3-1.36,2.8v.04c.96.54,1.36,1.56,1.36,2.9v1.1c0,2.24-1.22,3.52-3.44,3.52ZM616.61,259.21c0,1.12.52,1.48,1.24,1.48s1.24-.36,1.24-1.48v-.78c0-1.26-.54-1.6-1.24-1.6s-1.24.34-1.24,1.6v.78ZM617.85,267.15c.7,0,1.22-.34,1.24-1.58v-1.3c0-1.1-.46-1.58-1.24-1.58s-1.24.48-1.24,1.58v1.3c0,1.24.54,1.58,1.24,1.58Z"/>
        </g>
      </g>

      <g>
        <rect class="cls-2" x="694.89" y="250.99" width="42.07" height="22" rx="3" ry="3"/>
        <g>
          <path class="cls-5" d="M701.62,256.75c1.7,0,2.08-.82,2.42-1.76h1.48v14h-2.2v-10.68h-1.7v-1.56Z"/>
          <path class="cls-5" d="M713,254.99h1.9l-5.52,14h-1.9l5.52-14Z"/>
          <path class="cls-5" d="M717.16,256.75c1.7,0,2.08-.82,2.42-1.76h1.48v14h-2.2v-10.68h-1.7v-1.56Z"/>
          <path class="cls-5" d="M723.54,258.35c0-2.24,1.18-3.52,3.34-3.52s3.34,1.28,3.34,3.52v7.28c0,2.24-1.18,3.52-3.34,3.52s-3.34-1.28-3.34-3.52v-7.28ZM725.74,265.77c0,1,.44,1.38,1.14,1.38s1.14-.38,1.14-1.38v-7.56c0-1-.44-1.38-1.14-1.38s-1.14.38-1.14,1.38v7.56Z"/>
        </g>
      </g>


       <rect id="port-x" class="cls-4" x="821.83" y="156.6" width="95" height="86" rx="5" ry="5"/>
      <rect id="port-1/1" class="cls-4" x="162.8" y="156.6" width="95" height="86" rx="5" ry="5"/>
      <rect id="port-1/2" class="cls-4" x="959.8" y="156.6" width="95" height="86" rx="5" ry="5"/>
      <rect id="port-1/3" class="cls-4" x="332.4" y="59.6" width="95" height="86" rx="5" ry="5"/>
      <rect id="port-1/5" class="cls-4" x="438" y="59.6" width="95" height="86" rx="5" ry="5"/>
      <rect id="port-1/6" class="cls-4" x="437.38" y="153.6" width="95" height="86" rx="5" ry="5"/>
      <rect id="port-1/4" class="cls-4" x="331.86" y="153.6" width="95" height="86" rx="5" ry="5"/>
      <rect id="port-1/7" class="cls-4" x="563.6" y="59.6" width="95" height="86" rx="5" ry="5"/> 
      <rect id="port-1/9" class="cls-4" x="668.2" y="59.6" width="95" height="86" rx="5" ry="5"/> 
      <rect id="port-1/8" class="cls-4" x="563.4" y="153.6" width="95" height="86" rx="5" ry="5"/> 
      <rect id="port-1/10" class="cls-4" x="668.42" y="153.6" width="95" height="86" rx="5" ry="5"/> 
    </g>
  </g>
</svg>

