<?xml version="1.0" encoding="UTF-8"?>
<svg id="Layer_2" data-name="Layer 2" xmlns="http://www.w3.org/2000/svg" viewBox="0 0 1275.05 372.83">
  <defs>
    <style>
      .cls-1 {
        stroke-width: 5px;
      }

      .cls-1, .cls-2, .cls-3 {
        stroke: #fff;
      }

      .cls-1, .cls-2, .cls-3, .cls-4 {
        fill: none;
        stroke-miterlimit: 10;
      }

      .cls-3 {
        stroke-width: 3px;
      }

      .cls-5 {
        fill: #f2f2f2;
        stroke-width: 0px;
      }

      .cls-4 {
        stroke: red;
        stroke-width: 4px;
      }
    </style>
  </defs>
  <g id="Layer_3" data-name="Layer 3">
    <g>
      <rect class="cls-3" x="1175.02" y="14.91" width="85" height="58" rx="5.03" ry="5.03"/>
      <rect class="cls-1" x="2.5" y="2.5" width="1270.05" height="367.83" rx="20" ry="20"/>
      <rect class="cls-3" x="149.77" y="96.05" width="500" height="180" rx="5.03" ry="5.03"/>
      <rect class="cls-3" x="672.02" y="95.91" width="500" height="180" rx="5.03" ry="5.03"/>
      <rect class="cls-3" x="36.76" y="96.05" width="95" height="180" rx="5.03" ry="5.03"/>
      <g>
        <g>
          <rect class="cls-2" x="63.23" y="61.72" width="42.07" height="22" rx="3" ry="3"/>
          <g>
            <path class="cls-5" d="M74.54,67.48c1.7,0,2.08-.82,2.42-1.76h1.48v14h-2.2v-10.68h-1.7v-1.56Z"/>
            <path class="cls-5" d="M85.92,65.72h1.9l-5.52,14h-1.9l5.52-14Z"/>
            <path class="cls-5" d="M90.08,67.48c1.7,0,2.08-.82,2.42-1.76h1.48v14h-2.2v-10.68h-1.7v-1.56Z"/>
          </g>
        </g>
        <g>
          <rect class="cls-2" x="63.23" y="289.68" width="42.07" height="22" rx="3" ry="3"/>
          <g>
            <path class="cls-5" d="M73.89,295.52c1.7,0,2.08-.82,2.42-1.76h1.48v14h-2.2v-10.68h-1.7v-1.56Z"/>
            <path class="cls-5" d="M85.27,293.75h1.9l-5.52,14h-1.9l5.52-14Z"/>
            <path class="cls-5" d="M91.29,295.6c-.7,0-1.14.38-1.14,1.38v1.5h-2.08v-1.36c0-2.24,1.12-3.52,3.28-3.52s3.28,1.28,3.28,3.52c0,1.86-.68,3.36-2.72,5.54-1.3,1.4-1.66,2.06-1.66,2.8,0,.1,0,.2.02.3h4.16v2h-6.36v-1.72c0-1.56.56-2.74,2.2-4.46,1.68-1.78,2.16-2.88,2.16-4.38,0-1.26-.44-1.6-1.14-1.6Z"/>
          </g>
        </g>
        <rect class="cls-4" x="36.52" y="96.41" width="95" height="86" rx="5" ry="5"/>
        <rect class="cls-4" x="36.52" y="190.41" width="95" height="86" rx="5" ry="5"/>
        <g>
          <rect class="cls-2" x="166.71" y="62.15" width="42.07" height="22" rx="3" ry="3"/>
          <g>
            <path class="cls-5" d="M177.43,67.76c1.7,0,2.08-.82,2.42-1.76h1.48v14h-2.2v-10.68h-1.7v-1.56Z"/>
            <path class="cls-5" d="M188.81,66h1.9l-5.52,14h-1.9l5.52-14Z"/>
            <path class="cls-5" d="M195.85,69.44c0-1.26-.44-1.6-1.14-1.6s-1.14.38-1.14,1.38v.9h-2.08v-.76c0-2.24,1.12-3.52,3.28-3.52s3.28,1.28,3.28,3.52v.36c0,1.5-.48,2.42-1.54,2.86v.04c1.1.48,1.54,1.5,1.54,2.92v1.1c0,2.24-1.12,3.52-3.28,3.52s-3.28-1.28-3.28-3.52v-1.16h2.08v1.3c0,1,.44,1.38,1.14,1.38s1.14-.34,1.14-1.58v-1.1c0-1.3-.44-1.78-1.44-1.78h-.74v-2h.86c.82,0,1.32-.36,1.32-1.48v-.78Z"/>
          </g>
        </g>
        <rect class="cls-4" x="150.24" y="96.41" width="75" height="86" rx="5" ry="5"/>
        <g>
          <rect class="cls-2" x="251.71" y="61.15" width="42.07" height="22" rx="3" ry="3"/>
          <g>
            <path class="cls-5" d="M262.42,66.83c1.7,0,2.08-.82,2.42-1.76h1.48v14h-2.2v-10.68h-1.7v-1.56Z"/>
            <path class="cls-5" d="M273.8,65.07h1.9l-5.52,14h-1.9l5.52-14Z"/>
            <path class="cls-5" d="M278.58,74.55v1.3c0,1,.44,1.36,1.14,1.36s1.14-.36,1.14-1.36v-3.08c0-1-.44-1.38-1.14-1.38s-1.14.38-1.14,1.38v.42h-2.08l.4-8.12h5.8v2h-3.84l-.18,3.34h.04c.4-.66,1.02-1.02,1.9-1.02,1.62,0,2.44,1.14,2.44,3.2v3.12c0,2.24-1.12,3.52-3.28,3.52s-3.28-1.28-3.28-3.52v-1.16h2.08Z"/>
          </g>
        </g>
        <rect class="cls-4" x="235.24" y="96.41" width="75" height="86" rx="5" ry="5"/>
        <g>
          <rect class="cls-2" x="336.71" y="61.15" width="42.07" height="22" rx="3" ry="3"/>
          <g>
            <path class="cls-5" d="M347.42,66.91c1.7,0,2.08-.82,2.42-1.76h1.48v14h-2.2v-10.68h-1.7v-1.56Z"/>
            <path class="cls-5" d="M358.8,65.15h1.9l-5.52,14h-1.9l5.52-14Z"/>
            <path class="cls-5" d="M368.06,65.15v1.92l-3.24,12.08h-2.2l3.22-12h-4.38v-2h6.6Z"/>
          </g>
        </g>
        <rect class="cls-4" x="320.24" y="96.41" width="75" height="86" rx="5" ry="5"/>
        <g>
          <rect class="cls-2" x="421.71" y="60.86" width="42.07" height="22" rx="3" ry="3"/>
          <g>
            <path class="cls-5" d="M432.42,66.62c1.7,0,2.08-.82,2.42-1.76h1.48v14h-2.2v-10.68h-1.7v-1.56Z"/>
            <path class="cls-5" d="M443.8,64.86h1.9l-5.52,14h-1.9l5.52-14Z"/>
            <path class="cls-5" d="M453.07,75.38c0,2.36-1.08,3.64-3.36,3.64-2.16,0-3.28-1.28-3.28-3.52v-.36h2.08v.5c0,1,.44,1.38,1.14,1.38.78,0,1.22-.38,1.22-1.72v-2.54h-.04c-.38.8-1.02,1.22-2,1.22-1.62,0-2.44-1.14-2.44-3.2v-2.56c0-2.24,1.18-3.52,3.34-3.52s3.34,1.28,3.34,3.52v7.16ZM450.86,70.6v-2.52c0-1-.44-1.36-1.14-1.36s-1.14.36-1.14,1.36v2.52c0,1,.44,1.38,1.14,1.38s1.14-.38,1.14-1.38Z"/>
          </g>
        </g>
        <rect class="cls-4" x="405.24" y="96.41" width="75" height="86" rx="5" ry="5"/>
        <g>
          <rect class="cls-2" x="506.71" y="60.86" width="42.07" height="22" rx="3" ry="3"/>
          <g>
            <path class="cls-5" d="M520.56,66.78c-.7,0-1.14.38-1.14,1.38v1.5h-2.08v-1.36c0-2.24,1.12-3.52,3.28-3.52s3.28,1.28,3.28,3.52c0,1.86-.68,3.36-2.72,5.54-1.3,1.4-1.66,2.06-1.66,2.8,0,.1,0,.2.02.3h4.16v2h-6.36v-1.72c0-1.56.56-2.74,2.2-4.46,1.68-1.78,2.16-2.88,2.16-4.38,0-1.26-.44-1.6-1.14-1.6Z"/>
            <path class="cls-5" d="M530.08,64.94h1.9l-5.52,14h-1.9l5.52-14Z"/>
            <path class="cls-5" d="M534.24,66.7c1.7,0,2.08-.82,2.42-1.76h1.48v14h-2.2v-10.68h-1.7v-1.56Z"/>
          </g>
        </g>
        <rect class="cls-4" x="490.24" y="96.41" width="75" height="86" rx="5" ry="5"/>
        <g>
          <rect class="cls-2" x="591.71" y="61.86" width="42.07" height="22" rx="3" ry="3"/>
          <g>
            <path class="cls-5" d="M604.97,67.7c-.7,0-1.14.38-1.14,1.38v1.5h-2.08v-1.36c0-2.24,1.12-3.52,3.28-3.52s3.28,1.28,3.28,3.52c0,1.86-.68,3.36-2.72,5.54-1.3,1.4-1.66,2.06-1.66,2.8,0,.1,0,.2.02.3h4.16v2h-6.36v-1.72c0-1.56.56-2.74,2.2-4.46,1.68-1.78,2.16-2.88,2.16-4.38,0-1.26-.44-1.6-1.14-1.6Z"/>
            <path class="cls-5" d="M614.49,65.86h1.9l-5.52,14h-1.9l5.52-14Z"/>
            <path class="cls-5" d="M621.53,69.3c0-1.26-.44-1.6-1.14-1.6s-1.14.38-1.14,1.38v.9h-2.08v-.76c0-2.24,1.12-3.52,3.28-3.52s3.28,1.28,3.28,3.52v.36c0,1.5-.48,2.42-1.54,2.86v.04c1.1.48,1.54,1.5,1.54,2.92v1.1c0,2.24-1.12,3.52-3.28,3.52s-3.28-1.28-3.28-3.52v-1.16h2.08v1.3c0,1,.44,1.38,1.14,1.38s1.14-.34,1.14-1.58v-1.1c0-1.3-.44-1.78-1.44-1.78h-.74v-2h.86c.82,0,1.32-.36,1.32-1.48v-.78Z"/>
          </g>
        </g>
        <rect class="cls-4" x="575.24" y="96.41" width="75" height="86" rx="5" ry="5"/>
        <g>
          <rect class="cls-2" x="166.67" y="288.59" width="42.07" height="22" rx="3" ry="3"/>
          <g>
            <path class="cls-5" d="M177.16,294.35c1.7,0,2.08-.82,2.42-1.76h1.48v14h-2.2v-10.68h-1.7v-1.56Z"/>
            <path class="cls-5" d="M188.54,292.59h1.9l-5.52,14h-1.9l5.52-14Z"/>
            <path class="cls-5" d="M190.82,302.05l4-9.46h2.4v9.46h1.04v2h-1.04v2.54h-2.2v-2.54h-4.2v-2ZM195.02,302.05v-5.18h-.04l-2.14,5.18h2.18Z"/>
          </g>
        </g>
        <rect class="cls-4" x="150.21" y="190.41" width="75" height="86" rx="5" ry="5"/>
        <g>
          <rect class="cls-2" x="251.69" y="288.59" width="42.07" height="22" rx="3" ry="3"/>
          <g>
            <path class="cls-5" d="M262.37,294.35c1.7,0,2.08-.82,2.42-1.76h1.48v14h-2.2v-10.68h-1.7v-1.56Z"/>
            <path class="cls-5" d="M273.75,292.59h1.9l-5.52,14h-1.9l5.52-14Z"/>
            <path class="cls-5" d="M276.41,296.07c0-2.36,1.08-3.64,3.36-3.64,2.16,0,3.28,1.28,3.28,3.52v.36h-2.08v-.5c0-1-.44-1.38-1.14-1.38-.78,0-1.22.38-1.22,1.72v2.54h.04c.38-.8,1.02-1.22,2-1.22,1.62,0,2.44,1.14,2.44,3.2v2.56c0,2.24-1.18,3.52-3.34,3.52s-3.34-1.28-3.34-3.52v-7.16ZM278.61,300.85v2.52c0,1,.44,1.36,1.14,1.36s1.14-.36,1.14-1.36v-2.52c0-1-.44-1.38-1.14-1.38s-1.14.38-1.14,1.38Z"/>
          </g>
        </g>
        <rect class="cls-4" x="235.23" y="190.41" width="75" height="86" rx="5" ry="5"/>
        <g>
          <rect class="cls-2" x="336.71" y="288.59" width="42.07" height="22" rx="3" ry="3"/>
          <g>
            <path class="cls-5" d="M347.36,294.35c1.7,0,2.08-.82,2.42-1.76h1.48v14h-2.2v-10.68h-1.7v-1.56Z"/>
            <path class="cls-5" d="M358.74,292.59h1.9l-5.52,14h-1.9l5.52-14Z"/>
            <path class="cls-5" d="M364.7,306.75c-2.22,0-3.44-1.28-3.44-3.52v-1.1c0-1.34.4-2.36,1.36-2.9v-.04c-.92-.5-1.36-1.42-1.36-2.8v-.44c0-2.24,1.22-3.52,3.44-3.52s3.44,1.28,3.44,3.52v.44c0,1.38-.46,2.3-1.36,2.8v.04c.96.54,1.36,1.56,1.36,2.9v1.1c0,2.24-1.22,3.52-3.44,3.52ZM363.46,296.81c0,1.12.52,1.48,1.24,1.48s1.24-.36,1.24-1.48v-.78c0-1.26-.54-1.6-1.24-1.6s-1.24.34-1.24,1.6v.78ZM364.7,304.75c.7,0,1.22-.34,1.24-1.58v-1.3c0-1.1-.46-1.58-1.24-1.58s-1.24.48-1.24,1.58v1.3c0,1.24.54,1.58,1.24,1.58Z"/>
          </g>
        </g>
        <rect class="cls-4" x="320.25" y="190.41" width="75" height="86" rx="5" ry="5"/>
        <g>
          <rect class="cls-2" x="421.73" y="288.59" width="42.07" height="22" rx="3" ry="3"/>
          <g>
            <path class="cls-5" d="M428.47,294.35c1.7,0,2.08-.82,2.42-1.76h1.48v14h-2.2v-10.68h-1.7v-1.56Z"/>
            <path class="cls-5" d="M439.85,292.59h1.9l-5.52,14h-1.9l5.52-14Z"/>
            <path class="cls-5" d="M444.01,294.35c1.7,0,2.08-.82,2.42-1.76h1.48v14h-2.2v-10.68h-1.7v-1.56Z"/>
            <path class="cls-5" d="M450.39,295.95c0-2.24,1.18-3.52,3.34-3.52s3.34,1.28,3.34,3.52v7.28c0,2.24-1.18,3.52-3.34,3.52s-3.34-1.28-3.34-3.52v-7.28ZM452.59,303.37c0,1,.44,1.38,1.14,1.38s1.14-.38,1.14-1.38v-7.56c0-1-.44-1.38-1.14-1.38s-1.14.38-1.14,1.38v7.56Z"/>
          </g>
        </g>
        <rect class="cls-4" x="405.27" y="190.41" width="75" height="86" rx="5" ry="5"/>
        <g>
          <rect class="cls-2" x="506.75" y="288.59" width="42.07" height="22" rx="3" ry="3"/>
          <g>
            <path class="cls-5" d="M519.96,294.51c-.7,0-1.14.38-1.14,1.38v1.5h-2.08v-1.36c0-2.24,1.12-3.52,3.28-3.52s3.28,1.28,3.28,3.52c0,1.86-.68,3.36-2.72,5.54-1.3,1.4-1.66,2.06-1.66,2.8,0,.1,0,.2.02.3h4.16v2h-6.36v-1.72c0-1.56.56-2.74,2.2-4.46,1.68-1.78,2.16-2.88,2.16-4.38,0-1.26-.44-1.6-1.14-1.6Z"/>
            <path class="cls-5" d="M529.48,292.67h1.9l-5.52,14h-1.9l5.52-14Z"/>
            <path class="cls-5" d="M535.5,294.51c-.7,0-1.14.38-1.14,1.38v1.5h-2.08v-1.36c0-2.24,1.12-3.52,3.28-3.52s3.28,1.28,3.28,3.52c0,1.86-.68,3.36-2.72,5.54-1.3,1.4-1.66,2.06-1.66,2.8,0,.1,0,.2.02.3h4.16v2h-6.36v-1.72c0-1.56.56-2.74,2.2-4.46,1.68-1.78,2.16-2.88,2.16-4.38,0-1.26-.44-1.6-1.14-1.6Z"/>
          </g>
        </g>
        <rect class="cls-4" x="490.29" y="190.41" width="75" height="86" rx="5" ry="5"/>
        <g>
          <rect class="cls-2" x="591.77" y="288.59" width="42.07" height="22" rx="3" ry="3"/>
          <g>
            <path class="cls-5" d="M604.79,294.51c-.7,0-1.14.38-1.14,1.38v1.5h-2.08v-1.36c0-2.24,1.12-3.52,3.28-3.52s3.28,1.28,3.28,3.52c0,1.86-.68,3.36-2.72,5.54-1.3,1.4-1.66,2.06-1.66,2.8,0,.1,0,.2.02.3h4.16v2h-6.36v-1.72c0-1.56.56-2.74,2.2-4.46,1.68-1.78,2.16-2.88,2.16-4.38,0-1.26-.44-1.6-1.14-1.6Z"/>
            <path class="cls-5" d="M614.31,292.67h1.9l-5.52,14h-1.9l5.52-14Z"/>
            <path class="cls-5" d="M616.59,302.13l4-9.46h2.4v9.46h1.04v2h-1.04v2.54h-2.2v-2.54h-4.2v-2ZM620.79,302.13v-5.18h-.04l-2.14,5.18h2.18Z"/>
          </g>
        </g>
        <rect class="cls-4" x="575.3" y="190.41" width="75" height="86" rx="5" ry="5"/>
        <g>
          <rect class="cls-2" x="688.71" y="62.32" width="42.07" height="22" rx="3" ry="3"/>
          <g>
            <path class="cls-5" d="M701.97,68.15c-.7,0-1.14.38-1.14,1.38v1.5h-2.08v-1.36c0-2.24,1.12-3.52,3.28-3.52s3.28,1.28,3.28,3.52c0,1.86-.68,3.36-2.72,5.54-1.3,1.4-1.66,2.06-1.66,2.8,0,.1,0,.2.02.3h4.16v2h-6.36v-1.72c0-1.56.56-2.74,2.2-4.46,1.68-1.78,2.16-2.88,2.16-4.38,0-1.26-.44-1.6-1.14-1.6Z"/>
            <path class="cls-5" d="M711.49,66.31h1.9l-5.52,14h-1.9l5.52-14Z"/>
            <path class="cls-5" d="M716.27,75.8v1.3c0,1,.44,1.36,1.14,1.36s1.14-.36,1.14-1.36v-3.08c0-1-.44-1.38-1.14-1.38s-1.14.38-1.14,1.38v.42h-2.08l.4-8.12h5.8v2h-3.84l-.18,3.34h.04c.4-.66,1.02-1.02,1.9-1.02,1.62,0,2.44,1.14,2.44,3.2v3.12c0,2.24-1.12,3.52-3.28,3.52s-3.28-1.28-3.28-3.52v-1.16h2.08Z"/>
          </g>
        </g>
        <rect class="cls-4" x="672.25" y="96.41" width="75" height="86" rx="5" ry="5"/>
        <g>
          <rect class="cls-2" x="773.7" y="62.32" width="42.07" height="22" rx="3" ry="3"/>
          <g>
            <path class="cls-5" d="M786.95,68.23c-.7,0-1.14.38-1.14,1.38v1.5h-2.08v-1.36c0-2.24,1.12-3.52,3.28-3.52s3.28,1.28,3.28,3.52c0,1.86-.68,3.36-2.72,5.54-1.3,1.4-1.66,2.06-1.66,2.8,0,.1,0,.2.02.3h4.16v2h-6.36v-1.72c0-1.56.56-2.74,2.2-4.46,1.68-1.78,2.16-2.88,2.16-4.38,0-1.26-.44-1.6-1.14-1.6Z"/>
            <path class="cls-5" d="M796.47,66.39h1.9l-5.52,14h-1.9l5.52-14Z"/>
            <path class="cls-5" d="M805.73,66.39v1.92l-3.24,12.08h-2.2l3.22-12h-4.38v-2h6.6Z"/>
          </g>
        </g>
        <rect class="cls-4" x="757.23" y="96.41" width="75" height="86" rx="5" ry="5"/>
        <g>
          <rect class="cls-2" x="858.68" y="62.32" width="42.07" height="22" rx="3" ry="3"/>
          <g>
            <path class="cls-5" d="M871.93,68.15c-.7,0-1.14.38-1.14,1.38v1.5h-2.08v-1.36c0-2.24,1.12-3.52,3.28-3.52s3.28,1.28,3.28,3.52c0,1.86-.68,3.36-2.72,5.54-1.3,1.4-1.66,2.06-1.66,2.8,0,.1,0,.2.02.3h4.16v2h-6.36v-1.72c0-1.56.56-2.74,2.2-4.46,1.68-1.78,2.16-2.88,2.16-4.38,0-1.26-.44-1.6-1.14-1.6Z"/>
            <path class="cls-5" d="M881.45,66.31h1.9l-5.52,14h-1.9l5.52-14Z"/>
            <path class="cls-5" d="M890.72,76.84c0,2.36-1.08,3.64-3.36,3.64-2.16,0-3.28-1.28-3.28-3.52v-.36h2.08v.5c0,1,.44,1.38,1.14,1.38.78,0,1.22-.38,1.22-1.72v-2.54h-.04c-.38.8-1.02,1.22-2,1.22-1.62,0-2.44-1.14-2.44-3.2v-2.56c0-2.24,1.18-3.52,3.34-3.52s3.34,1.28,3.34,3.52v7.16ZM888.51,72.06v-2.52c0-1-.44-1.36-1.14-1.36s-1.14.36-1.14,1.36v2.52c0,1,.44,1.38,1.14,1.38s1.14-.38,1.14-1.38Z"/>
          </g>
        </g>
        <rect class="cls-4" x="842.21" y="96.41" width="75" height="86" rx="5" ry="5"/>
        <g>
          <rect class="cls-2" x="943.66" y="62.32" width="42.07" height="22" rx="3" ry="3"/>
          <g>
            <path class="cls-5" d="M953.56,68.23c-.7,0-1.14.38-1.14,1.38v1.5h-2.08v-1.36c0-2.24,1.12-3.52,3.28-3.52s3.28,1.28,3.28,3.52c0,1.86-.68,3.36-2.72,5.54-1.3,1.4-1.66,2.06-1.66,2.8,0,.1,0,.2.02.3h4.16v2h-6.36v-1.72c0-1.56.56-2.74,2.2-4.46,1.68-1.78,2.16-2.88,2.16-4.38,0-1.26-.44-1.6-1.14-1.6Z"/>
            <path class="cls-5" d="M963.08,66.39h1.9l-5.52,14h-1.9l5.52-14Z"/>
            <path class="cls-5" d="M967.24,68.15c1.7,0,2.08-.82,2.42-1.76h1.48v14h-2.2v-10.68h-1.7v-1.56Z"/>
            <path class="cls-5" d="M975.16,68.15c1.7,0,2.08-.82,2.42-1.76h1.48v14h-2.2v-10.68h-1.7v-1.56Z"/>
          </g>
        </g>
        <rect class="cls-4" x="927.2" y="96.41" width="75" height="86" rx="5" ry="5"/>
        <g>
          <rect class="cls-2" x="1028.65" y="62.32" width="42.07" height="22" rx="3" ry="3"/>
          <g>
            <path class="cls-5" d="M1037.95,68.15c-.7,0-1.14.38-1.14,1.38v1.5h-2.08v-1.36c0-2.24,1.12-3.52,3.28-3.52s3.28,1.28,3.28,3.52c0,1.86-.68,3.36-2.72,5.54-1.3,1.4-1.66,2.06-1.66,2.8,0,.1,0,.2.02.3h4.16v2h-6.36v-1.72c0-1.56.56-2.74,2.2-4.46,1.68-1.78,2.16-2.88,2.16-4.38,0-1.26-.44-1.6-1.14-1.6Z"/>
            <path class="cls-5" d="M1047.47,66.31h1.9l-5.52,14h-1.9l5.52-14Z"/>
            <path class="cls-5" d="M1051.63,68.07c1.7,0,2.08-.82,2.42-1.76h1.48v14h-2.2v-10.68h-1.7v-1.56Z"/>
            <path class="cls-5" d="M1062.43,69.75c0-1.26-.44-1.6-1.14-1.6s-1.14.38-1.14,1.38v.9h-2.08v-.76c0-2.24,1.12-3.52,3.28-3.52s3.28,1.28,3.28,3.52v.36c0,1.5-.48,2.42-1.54,2.86v.04c1.1.48,1.54,1.5,1.54,2.92v1.1c0,2.24-1.12,3.52-3.28,3.52s-3.28-1.28-3.28-3.52v-1.16h2.08v1.3c0,1,.44,1.38,1.14,1.38s1.14-.34,1.14-1.58v-1.1c0-1.3-.44-1.78-1.44-1.78h-.74v-2h.86c.82,0,1.32-.36,1.32-1.48v-.78Z"/>
          </g>
        </g>
        <rect class="cls-4" x="1012.18" y="96.41" width="75" height="86" rx="5" ry="5"/>
        <g>
          <rect class="cls-2" x="1110.71" y="62.32" width="47.91" height="22" rx="3" ry="3"/>
          <g>
            <path class="cls-5" d="M1122.57,68.15c-.7,0-1.14.38-1.14,1.38v1.5h-2.08v-1.36c0-2.24,1.12-3.52,3.28-3.52s3.28,1.28,3.28,3.52c0,1.86-.68,3.36-2.72,5.54-1.3,1.4-1.66,2.06-1.66,2.8,0,.1,0,.2.02.3h4.16v2h-6.36v-1.72c0-1.56.56-2.74,2.2-4.46,1.68-1.78,2.16-2.88,2.16-4.38,0-1.26-.44-1.6-1.14-1.6Z"/>
            <path class="cls-5" d="M1132.09,66.31h1.9l-5.52,14h-1.9l5.52-14Z"/>
            <path class="cls-5" d="M1136.25,68.07c1.7,0,2.08-.82,2.42-1.76h1.48v14h-2.2v-10.68h-1.7v-1.56Z"/>
            <path class="cls-5" d="M1144.79,75.8v1.3c0,1,.44,1.36,1.14,1.36s1.14-.36,1.14-1.36v-3.08c0-1-.44-1.38-1.14-1.38s-1.14.38-1.14,1.38v.42h-2.08l.4-8.12h5.8v2h-3.84l-.18,3.34h.04c.4-.66,1.02-1.02,1.9-1.02,1.62,0,2.44,1.14,2.44,3.2v3.12c0,2.24-1.12,3.52-3.28,3.52s-3.28-1.28-3.28-3.52v-1.16h2.08Z"/>
          </g>
        </g>
        <rect class="cls-4" x="1097.17" y="96.41" width="75" height="86" rx="5" ry="5"/>
        <g>
          <rect class="cls-2" x="688.57" y="288.9" width="42.07" height="22" rx="3" ry="3"/>
          <g>
            <path class="cls-5" d="M701.78,294.74c-.7,0-1.14.38-1.14,1.38v1.5h-2.08v-1.36c0-2.24,1.12-3.52,3.28-3.52s3.28,1.28,3.28,3.52c0,1.86-.68,3.36-2.72,5.54-1.3,1.4-1.66,2.06-1.66,2.8,0,.1,0,.2.02.3h4.16v2h-6.36v-1.72c0-1.56.56-2.74,2.2-4.46,1.68-1.78,2.16-2.88,2.16-4.38,0-1.26-.44-1.6-1.14-1.6Z"/>
            <path class="cls-5" d="M711.3,292.9h1.9l-5.52,14h-1.9l5.52-14Z"/>
            <path class="cls-5" d="M713.96,296.38c0-2.36,1.08-3.64,3.36-3.64,2.16,0,3.28,1.28,3.28,3.52v.36h-2.08v-.5c0-1-.44-1.38-1.14-1.38-.78,0-1.22.38-1.22,1.72v2.54h.04c.38-.8,1.02-1.22,2-1.22,1.62,0,2.44,1.14,2.44,3.2v2.56c0,2.24-1.18,3.52-3.34,3.52s-3.34-1.28-3.34-3.52v-7.16ZM716.16,301.16v2.52c0,1,.44,1.36,1.14,1.36s1.14-.36,1.14-1.36v-2.52c0-1-.44-1.38-1.14-1.38s-1.14.38-1.14,1.38Z"/>
          </g>
        </g>
        <rect class="cls-4" x="672.1" y="190.41" width="75" height="86" rx="5" ry="5"/>
        <g>
          <rect class="cls-2" x="773.52" y="288.9" width="42.07" height="22" rx="3" ry="3"/>
          <g>
            <path class="cls-5" d="M786.71,294.74c-.7,0-1.14.38-1.14,1.38v1.5h-2.08v-1.36c0-2.24,1.12-3.52,3.28-3.52s3.28,1.28,3.28,3.52c0,1.86-.68,3.36-2.72,5.54-1.3,1.4-1.66,2.06-1.66,2.8,0,.1,0,.2.02.3h4.16v2h-6.36v-1.72c0-1.56.56-2.74,2.2-4.46,1.68-1.78,2.16-2.88,2.16-4.38,0-1.26-.44-1.6-1.14-1.6Z"/>
            <path class="cls-5" d="M796.23,292.9h1.9l-5.52,14h-1.9l5.52-14Z"/>
            <path class="cls-5" d="M802.19,307.06c-2.22,0-3.44-1.28-3.44-3.52v-1.1c0-1.34.4-2.36,1.36-2.9v-.04c-.92-.5-1.36-1.42-1.36-2.8v-.44c0-2.24,1.22-3.52,3.44-3.52s3.44,1.28,3.44,3.52v.44c0,1.38-.46,2.3-1.36,2.8v.04c.96.54,1.36,1.56,1.36,2.9v1.1c0,2.24-1.22,3.52-3.44,3.52ZM800.95,297.12c0,1.12.52,1.48,1.24,1.48s1.24-.36,1.24-1.48v-.78c0-1.26-.54-1.6-1.24-1.6s-1.24.34-1.24,1.6v.78ZM802.19,305.06c.7,0,1.22-.34,1.24-1.58v-1.3c0-1.1-.46-1.58-1.24-1.58s-1.24.48-1.24,1.58v1.3c0,1.24.54,1.58,1.24,1.58Z"/>
          </g>
        </g>
        <rect class="cls-4" x="757.06" y="190.41" width="75" height="86" rx="5" ry="5"/>
        <g>
          <rect class="cls-2" x="858.48" y="288.9" width="42.07" height="22" rx="3" ry="3"/>
          <g>
            <path class="cls-5" d="M867.75,294.74c-.7,0-1.14.38-1.14,1.38v1.5h-2.08v-1.36c0-2.24,1.12-3.52,3.28-3.52s3.28,1.28,3.28,3.52c0,1.86-.68,3.36-2.72,5.54-1.3,1.4-1.66,2.06-1.66,2.8,0,.1,0,.2.02.3h4.16v2h-6.36v-1.72c0-1.56.56-2.74,2.2-4.46,1.68-1.78,2.16-2.88,2.16-4.38,0-1.26-.44-1.6-1.14-1.6Z"/>
            <path class="cls-5" d="M877.28,292.9h1.9l-5.52,14h-1.9l5.52-14Z"/>
            <path class="cls-5" d="M881.43,294.66c1.7,0,2.08-.82,2.42-1.76h1.48v14h-2.2v-10.68h-1.7v-1.56Z"/>
            <path class="cls-5" d="M887.81,296.26c0-2.24,1.18-3.52,3.34-3.52s3.34,1.28,3.34,3.52v7.28c0,2.24-1.18,3.52-3.34,3.52s-3.34-1.28-3.34-3.52v-7.28ZM890.01,303.68c0,1,.44,1.38,1.14,1.38s1.14-.38,1.14-1.38v-7.56c0-1-.44-1.38-1.14-1.38s-1.14.38-1.14,1.38v7.56Z"/>
          </g>
        </g>
        <rect class="cls-4" x="842.02" y="190.41" width="75" height="86" rx="5" ry="5"/>
        <g>
          <rect class="cls-2" x="943.44" y="288.9" width="42.07" height="22" rx="3" ry="3"/>
          <g>
            <path class="cls-5" d="M952.68,294.82c-.7,0-1.14.38-1.14,1.38v1.5h-2.08v-1.36c0-2.24,1.12-3.52,3.28-3.52s3.28,1.28,3.28,3.52c0,1.86-.68,3.36-2.72,5.54-1.3,1.4-1.66,2.06-1.66,2.8,0,.1,0,.2.02.3h4.16v2h-6.36v-1.72c0-1.56.56-2.74,2.2-4.46,1.68-1.78,2.16-2.88,2.16-4.38,0-1.26-.44-1.6-1.14-1.6Z"/>
            <path class="cls-5" d="M962.2,292.98h1.9l-5.52,14h-1.9l5.52-14Z"/>
            <path class="cls-5" d="M966.36,294.74c1.7,0,2.08-.82,2.42-1.76h1.48v14h-2.2v-10.68h-1.7v-1.56Z"/>
            <path class="cls-5" d="M976.14,294.82c-.7,0-1.14.38-1.14,1.38v1.5h-2.08v-1.36c0-2.24,1.12-3.52,3.28-3.52s3.28,1.28,3.28,3.52c0,1.86-.68,3.36-2.72,5.54-1.3,1.4-1.66,2.06-1.66,2.8,0,.1,0,.2.02.3h4.16v2h-6.36v-1.72c0-1.56.56-2.74,2.2-4.46,1.68-1.78,2.16-2.88,2.16-4.38,0-1.26-.44-1.6-1.14-1.6Z"/>
          </g>
        </g>
        <rect class="cls-4" x="926.97" y="190.41" width="75" height="86" rx="5" ry="5"/>
        <g>
          <rect class="cls-2" x="1028.4" y="288.9" width="42.07" height="22" rx="3" ry="3"/>
          <g>
            <path class="cls-5" d="M1037.46,294.82c-.7,0-1.14.38-1.14,1.38v1.5h-2.08v-1.36c0-2.24,1.12-3.52,3.28-3.52s3.28,1.28,3.28,3.52c0,1.86-.68,3.36-2.72,5.54-1.3,1.4-1.66,2.06-1.66,2.8,0,.1,0,.2.02.3h4.16v2h-6.36v-1.72c0-1.56.56-2.74,2.2-4.46,1.68-1.78,2.16-2.88,2.16-4.38,0-1.26-.44-1.6-1.14-1.6Z"/>
            <path class="cls-5" d="M1046.98,292.98h1.9l-5.52,14h-1.9l5.52-14Z"/>
            <path class="cls-5" d="M1051.14,294.74c1.7,0,2.08-.82,2.42-1.76h1.48v14h-2.2v-10.68h-1.7v-1.56Z"/>
            <path class="cls-5" d="M1057.18,302.44l4-9.46h2.4v9.46h1.04v2h-1.04v2.54h-2.2v-2.54h-4.2v-2ZM1061.38,302.44v-5.18h-.04l-2.14,5.18h2.18Z"/>
          </g>
        </g>
        <rect class="cls-4" x="1011.93" y="190.41" width="75" height="86" rx="5" ry="5"/>
        <g>
          <rect class="cls-2" x="1113.35" y="288.9" width="42.07" height="22" rx="3" ry="3"/>
          <g>
            <path class="cls-5" d="M1122.61,294.74c-.7,0-1.14.38-1.14,1.38v1.5h-2.08v-1.36c0-2.24,1.12-3.52,3.28-3.52s3.28,1.28,3.28,3.52c0,1.86-.68,3.36-2.72,5.54-1.3,1.4-1.66,2.06-1.66,2.8,0,.1,0,.2.02.3h4.16v2h-6.36v-1.72c0-1.56.56-2.74,2.2-4.46,1.68-1.78,2.16-2.88,2.16-4.38,0-1.26-.44-1.6-1.14-1.6Z"/>
            <path class="cls-5" d="M1132.13,292.9h1.9l-5.52,14h-1.9l5.52-14Z"/>
            <path class="cls-5" d="M1136.29,294.66c1.7,0,2.08-.82,2.42-1.76h1.48v14h-2.2v-10.68h-1.7v-1.56Z"/>
            <path class="cls-5" d="M1142.71,296.38c0-2.36,1.08-3.64,3.36-3.64,2.16,0,3.28,1.28,3.28,3.52v.36h-2.08v-.5c0-1-.44-1.38-1.14-1.38-.78,0-1.22.38-1.22,1.72v2.54h.04c.38-.8,1.02-1.22,2-1.22,1.62,0,2.44,1.14,2.44,3.2v2.56c0,2.24-1.18,3.52-3.34,3.52s-3.34-1.28-3.34-3.52v-7.16ZM1144.91,301.16v2.52c0,1,.44,1.36,1.14,1.36s1.14-.36,1.14-1.36v-2.52c0-1-.44-1.38-1.14-1.38s-1.14.38-1.14,1.38Z"/>
          </g>
        </g>
        <rect class="cls-4" x="1096.89" y="190.41" width="75" height="86" rx="5" ry="5"/>
      </g>
    </g>
  </g>
</svg>